<svg xmlns="http://www.w3.org/2000/svg" xmlns:xlink="http://www.w3.org/1999/xlink" width="500" zoomAndPan="magnify" viewBox="0 0 375 374.999991" height="500" preserveAspectRatio="xMidYMid meet" version="1.0"><defs><g/><clipPath id="7602bbdfdc"><path d="M 106.726562 175.054688 L 114.804688 175.054688 L 114.804688 189.339844 L 106.726562 189.339844 Z M 106.726562 175.054688 " clip-rule="nonzero"/></clipPath><clipPath id="7fcd577006"><path d="M 91 184 L 103 184 L 103 195 L 91 195 Z M 91 184 " clip-rule="nonzero"/></clipPath><clipPath id="49a8eb5f56"><path d="M 99.949219 184.832031 L 102.238281 187.800781 L 93.503906 194.535156 L 91.214844 191.566406 Z M 99.949219 184.832031 " clip-rule="nonzero"/></clipPath><clipPath id="f2f96b4d55"><path d="M 99.214844 161.007812 L 122.285156 161.007812 L 122.285156 165.378906 L 99.214844 165.378906 Z M 99.214844 161.007812 " clip-rule="nonzero"/></clipPath><clipPath id="26931c90a2"><path d="M 98.488281 176.683594 L 102.238281 176.683594 L 102.238281 187.710938 L 98.488281 187.710938 Z M 98.488281 176.683594 " clip-rule="nonzero"/></clipPath></defs><path stroke-linecap="butt" transform="matrix(0.570321, 0.487066, -0.487066, 0.570321, 147.07517, 149.280943)" fill="none" stroke-linejoin="miter" d="M -0.000457097 3.000882 L 126.819338 3.000706 " stroke="#ff914d" stroke-width="6" stroke-opacity="1" stroke-miterlimit="4"/><path stroke-linecap="butt" transform="matrix(-0.576172, 0.480131, -0.480131, -0.576172, 150.079828, 153.20813)" fill="none" stroke-linejoin="miter" d="M -0.000488401 2.998109 L 127.637613 3.001137 " stroke="#004aad" stroke-width="6" stroke-opacity="1" stroke-miterlimit="4"/><path stroke-linecap="butt" transform="matrix(-0.463052, 0.589986, -0.589986, -0.463052, 240.323427, 190.731506)" fill="none" stroke-linejoin="miter" d="M 0.000466228 2.997571 L 44.528967 3.001113 " stroke="#ff914d" stroke-width="6" stroke-opacity="1" stroke-miterlimit="4"/><g fill="#ff914d" fill-opacity="1"><g transform="translate(240.33097, 214.061184)"><g><path d="M 1.75 -27.65625 C 1.75 -28.53125 2.066406 -29.296875 2.703125 -29.953125 C 3.335938 -30.617188 4.117188 -30.953125 5.046875 -30.953125 C 5.960938 -30.953125 6.738281 -30.617188 7.375 -29.953125 C 8.007812 -29.296875 8.328125 -28.53125 8.328125 -27.65625 C 8.328125 -26.726562 8.007812 -25.945312 7.375 -25.3125 C 6.738281 -24.6875 5.960938 -24.375 5.046875 -24.375 C 4.117188 -24.375 3.335938 -24.6875 2.703125 -25.3125 C 2.066406 -25.945312 1.75 -26.726562 1.75 -27.65625 Z M 7.8125 -19.484375 L 7.8125 0 L 2.265625 0 L 2.265625 -19.484375 Z M 7.8125 -19.484375 "/></g></g></g><g fill="#ff914d" fill-opacity="1"><g transform="translate(250.371971, 214.061184)"><g><path d="M 6.46875 -8.84375 C 6.46875 -7.226562 6.8125 -5.953125 7.5 -5.015625 C 8.1875 -4.078125 9.125 -3.609375 10.3125 -3.609375 C 11.238281 -3.609375 12 -3.859375 12.59375 -4.359375 C 13.195312 -4.867188 13.679688 -5.503906 14.046875 -6.265625 L 19.171875 -5.4375 C 18.484375 -3.445312 17.351562 -1.9375 15.78125 -0.90625 C 14.207031 0.125 12.382812 0.640625 10.3125 0.640625 C 7.4375 0.640625 5.097656 -0.296875 3.296875 -2.171875 C 1.492188 -4.054688 0.59375 -6.519531 0.59375 -9.5625 C 0.59375 -12.757812 1.4375 -15.316406 3.125 -17.234375 C 4.820312 -19.160156 7.128906 -20.125 10.046875 -20.125 C 12.953125 -20.125 15.21875 -19.179688 16.84375 -17.296875 C 18.46875 -15.421875 19.28125 -12.765625 19.28125 -9.328125 L 19.28125 -8.84375 Z M 14.046875 -12.296875 C 13.859375 -13.515625 13.421875 -14.472656 12.734375 -15.171875 C 12.046875 -15.878906 11.238281 -16.234375 10.3125 -16.234375 C 9.445312 -16.234375 8.664062 -15.914062 7.96875 -15.28125 C 7.28125 -14.644531 6.832031 -13.648438 6.625 -12.296875 Z M 14.046875 -12.296875 "/></g></g></g><g fill="#ff914d" fill-opacity="1"><g transform="translate(270.255541, 214.061184)"><g><path d="M 16.828125 -20.125 L 21.625 -8.09375 L 25.75 -19.484375 L 31.796875 -19.484375 L 22.734375 0.390625 L 19.921875 0.390625 L 15.75 -11.46875 L 11.109375 0.390625 L 8.25 0.390625 L -0.71875 -19.484375 L 5.359375 -19.484375 L 9.40625 -8.25 L 14.171875 -20.125 Z M 16.828125 -20.125 "/></g></g></g><g fill="#004aad" fill-opacity="1"><g transform="translate(99.223248, 213.478351)"><g><path d="M 7.546875 -33.65625 L 7.546875 -17.859375 L 7.625 -17.859375 C 8.226562 -18.648438 8.972656 -19.222656 9.859375 -19.578125 C 10.742188 -19.941406 11.691406 -20.125 12.703125 -20.125 C 14.953125 -20.125 16.640625 -19.441406 17.765625 -18.078125 C 18.890625 -16.710938 19.453125 -14.707031 19.453125 -12.0625 L 19.453125 0 L 13.890625 0 L 13.890625 -11.390625 C 13.890625 -12.453125 13.773438 -13.28125 13.546875 -13.875 C 13.328125 -14.46875 13.019531 -14.914062 12.625 -15.21875 C 12.226562 -15.519531 11.628906 -15.671875 10.828125 -15.671875 C 9.691406 -15.671875 8.859375 -15.210938 8.328125 -14.296875 C 7.804688 -13.390625 7.546875 -11.984375 7.546875 -10.078125 L 7.546875 0 L 1.984375 0 L 1.984375 -33.65625 Z M 7.546875 -33.65625 "/></g></g></g><g fill="#004aad" fill-opacity="1"><g transform="translate(120.654636, 213.478351)"><g><path d="M 0.640625 -9.71875 C 0.640625 -12.789062 1.601562 -15.289062 3.53125 -17.21875 C 5.457031 -19.15625 7.90625 -20.125 10.875 -20.125 C 13.894531 -20.125 16.351562 -19.144531 18.25 -17.1875 C 20.15625 -15.226562 21.109375 -12.738281 21.109375 -9.71875 C 21.109375 -6.675781 20.148438 -4.1875 18.234375 -2.25 C 16.316406 -0.320312 13.863281 0.640625 10.875 0.640625 C 7.882812 0.640625 5.429688 -0.332031 3.515625 -2.28125 C 1.597656 -4.226562 0.640625 -6.707031 0.640625 -9.71875 Z M 10.828125 -15.203125 C 9.585938 -15.203125 8.515625 -14.664062 7.609375 -13.59375 C 6.710938 -12.519531 6.265625 -11.226562 6.265625 -9.71875 C 6.265625 -8.269531 6.710938 -7 7.609375 -5.90625 C 8.515625 -4.820312 9.601562 -4.28125 10.875 -4.28125 C 12.195312 -4.28125 13.296875 -4.820312 14.171875 -5.90625 C 15.046875 -7 15.484375 -8.269531 15.484375 -9.71875 C 15.484375 -11.144531 15.050781 -12.414062 14.1875 -13.53125 C 13.320312 -14.644531 12.203125 -15.203125 10.828125 -15.203125 Z M 10.828125 -15.203125 "/></g></g></g><g fill="#004aad" fill-opacity="1"><g transform="translate(142.403535, 213.478351)"><g><path d="M 17.984375 -17.0625 C 18.585938 -18.019531 19.398438 -18.769531 20.421875 -19.3125 C 21.441406 -19.851562 22.519531 -20.125 23.65625 -20.125 C 25.738281 -20.125 27.289062 -19.460938 28.3125 -18.140625 C 29.332031 -16.816406 29.84375 -14.882812 29.84375 -12.34375 L 29.84375 0 L 24.28125 0 L 24.28125 -10.90625 C 24.28125 -12.445312 24.085938 -13.625 23.703125 -14.4375 C 23.328125 -15.257812 22.648438 -15.671875 21.671875 -15.671875 C 20.660156 -15.671875 19.910156 -15.210938 19.421875 -14.296875 C 18.929688 -13.390625 18.6875 -11.914062 18.6875 -9.875 L 18.6875 0 L 13.140625 0 L 13.140625 -11.3125 C 13.140625 -12.769531 12.910156 -13.859375 12.453125 -14.578125 C 12.003906 -15.304688 11.347656 -15.671875 10.484375 -15.671875 C 9.609375 -15.671875 8.898438 -15.285156 8.359375 -14.515625 C 7.816406 -13.753906 7.546875 -12.488281 7.546875 -10.71875 L 7.546875 0 L 1.984375 0 L 1.984375 -19.484375 L 7.546875 -19.484375 L 7.546875 -17.734375 L 7.625 -17.734375 C 8.175781 -18.503906 8.878906 -19.09375 9.734375 -19.5 C 10.597656 -19.914062 11.476562 -20.125 12.375 -20.125 C 14.863281 -20.125 16.734375 -19.101562 17.984375 -17.0625 Z M 17.984375 -17.0625 "/></g></g></g><g fill="#004aad" fill-opacity="1"><g transform="translate(174.233124, 213.478351)"><g><path d="M 6.46875 -8.84375 C 6.46875 -7.226562 6.8125 -5.953125 7.5 -5.015625 C 8.1875 -4.078125 9.125 -3.609375 10.3125 -3.609375 C 11.238281 -3.609375 12 -3.859375 12.59375 -4.359375 C 13.195312 -4.867188 13.679688 -5.503906 14.046875 -6.265625 L 19.171875 -5.4375 C 18.484375 -3.445312 17.351562 -1.9375 15.78125 -0.90625 C 14.207031 0.125 12.382812 0.640625 10.3125 0.640625 C 7.4375 0.640625 5.097656 -0.296875 3.296875 -2.171875 C 1.492188 -4.054688 0.59375 -6.519531 0.59375 -9.5625 C 0.59375 -12.757812 1.4375 -15.316406 3.125 -17.234375 C 4.820312 -19.160156 7.128906 -20.125 10.046875 -20.125 C 12.953125 -20.125 15.21875 -19.179688 16.84375 -17.296875 C 18.46875 -15.421875 19.28125 -12.765625 19.28125 -9.328125 L 19.28125 -8.84375 Z M 14.046875 -12.296875 C 13.859375 -13.515625 13.421875 -14.472656 12.734375 -15.171875 C 12.046875 -15.878906 11.238281 -16.234375 10.3125 -16.234375 C 9.445312 -16.234375 8.664062 -15.914062 7.96875 -15.28125 C 7.28125 -14.644531 6.832031 -13.648438 6.625 -12.296875 Z M 14.046875 -12.296875 "/></g></g></g><g clip-path="url(#7602bbdfdc)"><path fill="#ffffff" d="M 106.726562 175.054688 L 114.804688 175.054688 L 114.804688 189.351562 L 106.726562 189.351562 Z M 106.726562 175.054688 " fill-opacity="1" fill-rule="nonzero"/></g><g clip-path="url(#7fcd577006)"><g clip-path="url(#49a8eb5f56)"><path fill="#ffffff" d="M 99.949219 184.832031 L 102.238281 187.800781 L 93.5 194.535156 L 91.210938 191.566406 Z M 99.949219 184.832031 " fill-opacity="1" fill-rule="nonzero"/></g></g><path stroke-linecap="butt" transform="matrix(0, 0.75, -0.75, 0, 119.3032, 166.877963)" fill="none" stroke-linejoin="miter" d="M 0.00125814 2.998017 L 15.615843 2.998017 " stroke="#004aad" stroke-width="6" stroke-opacity="1" stroke-miterlimit="4"/><g clip-path="url(#f2f96b4d55)"><path fill="#004aad" d="M 122.285156 161.007812 L 122.285156 165.378906 L 99.21875 165.378906 L 99.21875 161.007812 Z M 122.285156 161.007812 " fill-opacity="1" fill-rule="nonzero"/></g><path stroke-linecap="butt" transform="matrix(0.000000001309, 0.75, -0.75, 0.000000001309, 106.722221, 166.879311)" fill="none" stroke-linejoin="miter" d="M -0.000540261 2.999419 L 18.713003 2.999419 " stroke="#004aad" stroke-width="6" stroke-opacity="1" stroke-miterlimit="4"/><g clip-path="url(#26931c90a2)"><path fill="#ffffff" d="M 98.488281 176.683594 L 102.238281 176.683594 L 102.238281 187.710938 L 98.488281 187.710938 Z M 98.488281 176.683594 " fill-opacity="1" fill-rule="nonzero"/></g></svg>